{
    "accessors": [
        {
            "bufferView": 2,
            "byteOffset": 0,
            "componentType": 5123,
            "count": 252,
            "max": [
                231
            ],
            "min": [
                0
            ],
            "name": "accessor_buffer_Cone_0",
            "type": "SCALAR"
        },
        {
            "bufferView": 1,
            "byteOffset": 0,
            "componentType": 5126,
            "count": 232,
            "max": [
                0.9991747140884399,
                1.0,
                0.998981773853302
            ],
            "min": [
                -0.9999937415122986,
                -1.0,
                -1.0
            ],
            "name": "accessor_buffer_Cone_NORMAL_0",
            "type": "VEC3"
        },
        {
            "bufferView": 0,
            "byteOffset": 0,
            "componentType": 5126,
            "count": 232,
            "max": [
                1.912725806236267,
                1.9250048398971558,
                11.355528831481934
            ],
            "min": [
                -1.9158507585525513,
                -1.9250060319900513,
                -0.045287370681762695
            ],
            "name": "accessor_buffer_Cone_POSITION_0",
            "type": "VEC3"
        },
        {
            "bufferView": 3,
            "byteOffset": 0,
            "componentType": 5123,
            "count": 60,
            "max": [
                214
            ],
            "min": [
                2
            ],
            "name": "accessor_buffer_Cone_1",
            "type": "SCALAR"
        }
    ],
    "asset": {
        "version": "2.0"
    },
    "bufferViews": [
        {
            "buffer": 0,
            "byteLength": 2784,
            "byteOffset": 0,
            "byteStride": 12,
            "name": "bufferView_buffer_Cone_POSITION_0",
            "target": 34962
        },
        {
            "buffer": 0,
            "byteLength": 2784,
            "byteOffset": 2784,
            "byteStride": 12,
            "name": "bufferView_buffer_Cone_NORMAL_0",
            "target": 34962
        },
        {
            "buffer": 0,
            "byteLength": 504,
            "byteOffset": 5568,
            "name": "bufferView_buffer_Cone_0",
            "target": 34963
        },
        {
            "buffer": 0,
            "byteLength": 120,
            "byteOffset": 6072,
            "name": "bufferView_buffer_Cone_1",
            "target": 34963
        }
    ],
    "buffers": [
        {
            "byteLength": 6192,
            "name": "buffer_pine",
            "uri": "data:application/octet-stream;base64,"
        }
    ],
    "materials": [
        {
            "emissiveFactor": [
                0.0,
                0.0,
                0.0
            ],
            "name": "bark",
            "pbrMetallicRoughness": {
                "baseColorFactor": [
                    0.04555213451385498,
                    0.01983543671667576,
                    0.013435169123113155,
                    1.0
                ],
                "metallicFactor": 0.0,
                "roughnessFactor": 1.0
            }
        },
        {
            "emissiveFactor": [
                0.0,
                0.0,
                0.0
            ],
            "name": "pine_tree",
            "pbrMetallicRoughness": {
                "baseColorFactor": [
                    0.06496763229370117,
                    0.21906760334968567,
                    0.11774156242609024,
                    1.0
                ],
                "metallicFactor": 0.0,
                "roughnessFactor": 1.0
            }
        }
    ],
    "meshes": [
        {
            "name": "Cone",
            "primitives": [
                {
                    "attributes": {
                        "NORMAL": 1,
                        "POSITION": 2
                    },
                    "indices": 0,
                    "material": 1,
                    "mode": 4
                },
                {
                    "attributes": {
                        "NORMAL": 1,
                        "POSITION": 2
                    },
                    "indices": 3,
                    "material": 0,
                    "mode": 4
                }
            ]
        }
    ],
    "nodes": [
        {
            "mesh": 0,
            "name": "Cone",
            "rotation": [
                0.0,
                0.0,
                0.0,
                1.0
            ],
            "scale": [
                1.0,
                1.0,
                1.0
            ],
            "translation": [
                -3.265850305557251,
                -3.9817681312561035,
                0.0
            ]
        },
        {
            "children": [
                0
            ],
            "matrix": [
                -1.0,
                0.0,
                0.0,
                0.0,
                0.0,
                0.0,
                1.0,
                0.0,
                0.0,
                1.0,
                0.0,
                0.0,
                0.0,
                0.0,
                0.0,
                1.0
            ],
            "name": "Scene_root"
        }
    ],
    "scene": 0,
    "scenes": [
        {
            "extras": {
                "background_color": [
                    0.07238045334815979,
                    0.10000009834766388,
                    0.10000009834766388
                ],
                "frames_per_second": 24
            },
            "name": "Scene",
            "nodes": [
                1
            ]
        }
    ]
}
