{
    "accessors": [
        {
            "bufferView": 4,
            "byteOffset": 0,
            "componentType": 5123,
            "count": 5184,
            "max": [
                4470
            ],
            "min": [
                19
            ],
            "name": "accessor_buffer_Cube.000_2",
            "type": "SCALAR"
        },
        {
            "bufferView": 0,
            "byteOffset": 0,
            "componentType": 5126,
            "count": 4474,
            "max": [
                0.6707494854927063,
                2.3209352493286133,
                1.9271844625473022
            ],
            "min": [
                -0.6707494854927063,
                -2.2286558151245117,
                -0.05070137977600098
            ],
            "name": "accessor_buffer_Cube.000_POSITION_0",
            "type": "VEC3"
        },
        {
            "bufferView": 1,
            "byteOffset": 0,
            "componentType": 5126,
            "count": 4474,
            "max": [
                0.9998676776885986,
                0.9991455078125,
                1.0
            ],
            "min": [
                -0.9998676776885986,
                -0.9991455078125,
                -1.0
            ],
            "name": "accessor_buffer_Cube.000_NORMAL_0",
            "type": "VEC3"
        },
        {
            "bufferView": 2,
            "byteOffset": 0,
            "componentType": 5123,
            "count": 5172,
            "max": [
                4473
            ],
            "min": [
                0
            ],
            "name": "accessor_buffer_Cube.000_0",
            "type": "SCALAR"
        },
        {
            "bufferView": 3,
            "byteOffset": 0,
            "componentType": 5123,
            "count": 576,
            "max": [
                4461
            ],
            "min": [
                53
            ],
            "name": "accessor_buffer_Cube.000_1",
            "type": "SCALAR"
        }
    ],
    "asset": {
        "version": "2.0"
    },
    "bufferViews": [
        {
            "buffer": 0,
            "byteLength": 53688,
            "byteOffset": 0,
            "byteStride": 12,
            "name": "bufferView_buffer_Cube.000_POSITION_0",
            "target": 34962
        },
        {
            "buffer": 0,
            "byteLength": 53688,
            "byteOffset": 53688,
            "byteStride": 12,
            "name": "bufferView_buffer_Cube.000_NORMAL_0",
            "target": 34962
        },
        {
            "buffer": 0,
            "byteLength": 10344,
            "byteOffset": 107376,
            "name": "bufferView_buffer_Cube.000_0",
            "target": 34963
        },
        {
            "buffer": 0,
            "byteLength": 1152,
            "byteOffset": 117720,
            "name": "bufferView_buffer_Cube.000_1",
            "target": 34963
        },
        {
            "buffer": 0,
            "byteLength": 10368,
            "byteOffset": 118872,
            "name": "bufferView_buffer_Cube.000_2",
            "target": 34963
        }
    ],
    "buffers": [
        {
            "byteLength": 129240,
            "name": "buffer_chameleon",
            "uri": "data:application/octet-stream;base64,"
        }
    ],
    "materials": [
        {
            "emissiveFactor": [
                0.0,
                0.0,
                0.0
            ],
            "name": "Material.001",
            "pbrMetallicRoughness": {
                "baseColorFactor": [
                    0.22696588933467865,
                    0.597201943397522,
                    0.11953846365213394,
                    1.0
                ],
                "metallicFactor": 0.0,
                "roughnessFactor": 1.0
            }
        },
        {
            "emissiveFactor": [
                0.0,
                0.0,
                0.0
            ],
            "name": "Material.003",
            "pbrMetallicRoughness": {
                "baseColorFactor": [
                    0.800000011920929,
                    0.800000011920929,
                    0.800000011920929,
                    1.0
                ],
                "metallicFactor": 0.0,
                "roughnessFactor": 1.0
            }
        },
        {
            "emissiveFactor": [
                0.0,
                0.0,
                0.0
            ],
            "name": "Material.004",
            "pbrMetallicRoughness": {
                "baseColorFactor": [
                    0.0,
                    0.0,
                    0.0,
                    1.0
                ],
                "metallicFactor": 0.0,
                "roughnessFactor": 1.0
            }
        }
    ],
    "meshes": [
        {
            "name": "Cube.000",
            "primitives": [
                {
                    "attributes": {
                        "NORMAL": 2,
                        "POSITION": 1
                    },
                    "indices": 3,
                    "material": 0,
                    "mode": 4
                },
                {
                    "attributes": {
                        "NORMAL": 2,
                        "POSITION": 1
                    },
                    "indices": 4,
                    "material": 2,
                    "mode": 4
                },
                {
                    "attributes": {
                        "NORMAL": 2,
                        "POSITION": 1
                    },
                    "indices": 0,
                    "material": 1,
                    "mode": 4
                }
            ]
        }
    ],
    "nodes": [
        {
            "mesh": 0,
            "name": "chameleon",
            "rotation": [
                0.0,
                0.0,
                0.0,
                1.0
            ],
            "scale": [
                1.0,
                1.0,
                1.0
            ],
            "translation": [
                0.0,
                0.0,
                0.0
            ]
        },
        {
            "children": [
                0
            ],
            "matrix": [
                1.0,
                0.0,
                0.0,
                0.0,
                0.0,
                0.0,
                -1.0,
                0.0,
                0.0,
                1.0,
                0.0,
                0.0,
                0.0,
                0.0,
                0.0,
                1.0
            ],
            "name": "Scene_root"
        }
    ],
    "scene": 0,
    "scenes": [
        {
            "extras": {
                "background_color": [
                    0.05087608844041824,
                    0.05087608844041824,
                    0.05087608844041824
                ],
                "frames_per_second": 24
            },
            "name": "Scene",
            "nodes": [
                1
            ]
        }
    ]
}
